<svg width="478" height="831" viewBox="0 0 478 831" fill="none" xmlns="http://www.w3.org/2000/svg">
<g clip-path="url(#clip0_45_666)">
<path d="M160.393 852H109.405C107.25 848.503 108.161 844.688 108.473 841.022C108.744 837.811 109.04 834.613 108.987 831.39C108.663 811.543 110.243 791.723 109.886 771.867C109.639 758.308 107.874 744.933 106.136 731.527C103.88 714.139 100.847 696.881 97.5625 679.675C95.3594 668.12 93.0226 656.565 89.8069 645.227C89.6652 644.163 89.734 643.066 89.3817 642.025C89.2238 641.444 89.1266 640.851 89.0496 640.258C88.9565 639.294 88.7297 638.367 88.2072 637.528C87.2636 635.483 86.7898 633.313 86.4131 631.111C81.8772 611.417 76.4017 591.98 70.5172 572.653C70.2782 571.875 70.2458 571.072 70.0109 570.31C69.614 569.81 69.3427 569.265 69.4196 568.596C69.2253 569.297 69.6626 569.802 69.9704 570.346C70.0717 570.528 70.1081 570.657 70.1324 570.709C73.9272 584.926 78.4226 598.942 82.0514 613.199C82.4199 614.651 83.0233 615.998 82.1566 617.438C78.8965 618.596 80.3423 615.696 79.6943 614.607C79.1557 614.28 79.4351 613.425 78.7669 613.082C79.2812 613.865 79.7469 614.575 79.8644 615.462C81.2859 622.004 83.0638 628.445 84.291 635.031C86.6521 647.708 88.1222 660.489 89.5599 673.283C91.7428 692.743 92.6945 712.28 93.8164 731.821C94.8329 749.463 94.1768 766.951 91.8279 784.362C90.301 795.676 87.3648 806.715 80.9862 816.536C74.3484 826.76 64.6812 832.273 52.9972 834.677C47.9794 835.71 42.9129 836.371 37.7533 836.278C31.8242 836.174 25.8951 836.287 19.9661 836.238C17.7224 836.222 15.6691 836.52 14.0977 838.303C11.9999 838.436 12.1983 836.746 12.0485 835.544C9.77241 817.133 8.91383 798.721 10.0802 780.128C11.3316 760.167 13.7656 740.319 15.009 720.375C15.9364 705.52 17.0663 690.678 17.7022 675.799C18.3137 661.461 18.7308 647.115 19.3302 632.777C20.3508 608.404 20.6546 583.97 24.8503 559.795C28.155 540.738 37.3078 526.182 54.5848 516.659C73.4858 506.246 93.2575 497.606 112.434 487.765C121.068 483.333 129.788 479.082 137.377 472.927C138.418 472.08 139.589 471.386 140.484 470.37C143.622 467.53 147.437 466.849 151.398 467.555C158.951 468.902 166.423 470.672 173.924 472.298C177.237 473.016 178.282 475.44 179.011 478.335C182.198 490.996 187.621 502.624 196.004 512.703C207.692 526.759 222.215 535.789 241.051 536.1C254.124 536.317 265.541 531.707 275.245 522.927C290.562 509.069 297.24 491.234 299.285 471.261C299.828 465.978 300.107 465.736 305.433 465.671C312.439 465.582 318.417 468.579 324.326 471.826C331.251 476.762 338.662 480.88 346.26 484.643C362.67 492.775 379.068 500.93 394.9 510.138C407.361 517.385 419.487 525.145 430.049 535.067C439.129 543.602 445.811 553.757 449.95 565.446C455.547 581.252 457.56 597.784 459.407 614.337C461.1 629.526 462.108 644.772 463.254 660.005C463.829 667.624 463.809 675.279 464.052 682.906C464.785 705.956 465.773 729.018 464.724 752.096C463.781 772.876 464.4 793.675 464.23 814.467C464.214 816.58 464.615 818.79 463.303 820.73C462.149 821.634 460.8 821.638 459.447 821.484C441.089 819.411 423.824 814.265 408.649 803.371C395.738 794.103 388.63 781.067 385.22 765.975C381.195 748.156 381.3 730.071 382.349 711.921C383.163 697.861 384.455 683.854 385.937 669.862C387.432 655.746 389.963 641.779 392.781 627.872C394.539 619.209 395.831 610.461 397.5 601.785C398.658 598.752 397.844 595.332 399.326 592.359C400.189 592.218 400.177 593.138 400.659 593.457C400.537 593.077 400.934 592.396 400.817 592.444C400.16 592.723 399.877 592.359 399.545 591.96C399.237 590.21 400.023 588.609 400.156 587.253C398.994 591.194 398.512 595.61 397.605 599.946C397.362 602.531 396.84 605.04 395.673 607.387C391.182 617.156 387.711 627.32 383.864 637.338C373.026 665.575 363.335 694.211 354.923 723.247C347.074 750.342 339.962 777.659 335.406 805.521C334.268 812.49 329.655 816.221 325.022 820.186C317.777 826.385 309.236 830.495 300.37 833.778C280.016 841.312 258.822 845.224 237.297 847.418C215.719 849.62 194.06 850.576 172.385 851.282C168.404 851.411 164.342 851.028 160.393 851.98V852Z" fill="#49BB7D"/>
<path d="M323.957 472.358C319.608 470.604 315.299 468.736 310.892 467.139C307.911 466.058 304.757 466.857 301.683 466.929C300.148 466.966 300.403 468.41 300.354 469.422C300.075 475.06 299.273 480.622 297.888 486.091C294.612 499.058 288.849 510.718 279.477 520.455C269.316 531.01 256.915 536.846 242.238 537.253C231.915 537.539 222.288 534.619 213.451 529.275C197.827 519.833 187.815 505.891 181.283 489.213C179.671 485.095 178.253 480.892 177.476 476.537C177.136 474.637 176.249 473.701 174.471 473.334C166.577 471.709 158.688 470.063 150.795 468.43C147.134 467.671 143.967 469.123 140.824 470.668C135.79 474.5 129.683 476.024 123.932 478.226C103.277 486.148 82.8453 494.565 63.1991 504.753C55.5285 508.73 48.3075 513.372 41.7953 519.132C27.1183 532.115 20.278 549.006 16.9369 567.696C14.5028 581.32 13.2352 595.042 12.4576 608.88C10.8539 637.455 11.4128 666.039 10.862 694.618C10.5177 712.437 8.85726 730.232 6.64195 747.95C5.92917 753.665 5.25283 759.405 5.32168 765.192C5.47963 778.482 4.74659 791.739 3.84346 804.992C3.73411 806.622 3.96901 808.203 4.3011 809.784C7.0105 822.666 9.64295 835.573 14.6729 847.83C15.2359 849.205 15.8393 850.604 14.7013 852H10.6554C6.13571 843.812 3.65716 834.927 1.35681 825.937C0.340278 821.964 0.0689329 818 0.016284 813.983C-0.109264 804.847 0.421276 795.752 1.36491 786.649C2.02909 780.252 2.13439 773.779 2.13844 767.338C2.13844 755.896 3.45062 744.57 4.5441 733.213C5.73882 720.79 6.7675 708.34 6.8971 695.841C7.14009 672.738 7.28589 649.636 7.73138 626.537C8.02298 611.372 8.58997 596.203 10.5866 581.139C12.0324 570.225 13.782 559.355 17.3297 548.881C23.7164 530.009 35.8297 515.748 52.9771 505.701C67.7391 497.05 83.392 490.201 99.2474 483.853C111.847 478.807 124.608 474.169 137.292 469.337C138.908 468.724 140.492 468.03 142.654 467.139C134.741 465.332 127.435 463.525 120.068 462.033C115.84 461.178 111.717 459.98 107.594 458.802C96.6879 455.685 86.1945 451.49 76.6894 445.267C70.2622 441.06 64.5437 435.966 59.6473 429.953C49.8749 417.954 47.21 404.136 48.4412 389.148C49.3767 377.71 52.2198 366.715 55.4475 355.761C59.7769 341.072 65.5521 326.943 71.5338 312.867C77.8801 297.932 84.6677 283.199 91.3865 268.429C92.0953 266.868 93.8003 265.428 93.4358 263.807C93.0227 261.976 90.8115 261.246 89.313 260.161C78.4592 252.324 70.1204 242.148 62.5187 231.355C51.0291 215.041 41.8844 197.468 34.3353 179.004C27.5112 162.314 22.3435 145.181 18.6581 127.551C15.7624 113.697 14.4057 99.7301 14.3125 85.5976C14.2356 73.9576 15.6166 62.604 20.112 51.7586C22.5217 45.9427 25.8143 40.8043 31.2776 37.3478C36.7126 33.9075 43.0791 34.7585 47.3153 39.554C51.5596 44.3617 54.0422 50.2179 56.6463 55.9411C60.2224 63.7858 64.2723 71.3562 69.197 78.4144C75.4501 87.3763 82.8736 95.3742 91.1233 102.529C99.6484 109.926 108.732 116.702 117.087 124.276C129.193 135.259 140.079 147.31 146.656 162.596C147.446 164.432 148.053 166.779 149.511 167.775C151.074 168.844 153.281 167.182 155.225 166.819C169.866 164.089 183.871 166.142 197.45 171.962C207.64 176.33 216.197 183.005 224.021 190.66C225.617 192.221 226.557 192.209 228.347 191.075C240.946 183.085 254.525 177.483 269.255 174.732C271.102 174.39 273.208 174.228 274.637 173.212C276.039 172.216 275.289 169.989 275.532 168.316C278.335 149.137 283.713 130.661 290.306 112.459C297.378 92.9381 306.644 74.5223 317.68 56.9817C325.286 44.8981 333.997 33.6009 344.349 23.6993C353.348 15.0924 363.351 7.81637 375.258 3.63792C382.795 1.00421 390.647 -0.0605703 398.67 -7.15256e-05C409.637 0.08866 420.406 1.72616 431.114 3.87185C435.472 4.74303 439.862 5.36415 444.28 5.77554C445.633 5.90057 446.945 6.09417 448.423 6.72336C447.326 8.43346 445.329 8.71982 443.92 9.79669C435.784 16.0321 428.048 22.6789 421.629 30.7212C415.441 38.4731 412.197 47.5076 410.383 57.0946C408.281 68.1901 408.111 79.4872 407.037 90.6916C405.839 103.223 404.591 115.75 401.967 128.132C399.509 139.732 396.289 151.025 391.085 161.661C383.293 177.58 372.856 191.386 357.794 201.324C355.093 203.106 352.513 205.087 349.387 206.022C347.694 206.531 347.795 207.523 348.111 208.761C349.375 213.734 350.132 218.763 349.775 223.906C349.654 225.648 350.525 226.265 352.1 226.475C357.057 227.128 361.848 228.342 366.485 230.286C377.266 234.804 385.804 241.838 391.635 251.997C392.235 253.042 392.761 254.147 393.162 255.276C393.539 256.337 394.082 257.144 395.07 257.745C398.456 259.806 399.938 263.226 400.509 266.795C401.307 271.809 401.866 277 398.597 281.553C397.836 282.618 398.411 283.207 398.998 283.981C402.882 289.124 403.218 294.847 401.513 300.792C400.821 303.212 400.448 305.49 400.509 308.112C400.691 315.658 398.67 322.737 393.531 328.585C392.539 329.714 391.765 330.928 391.012 332.191C389.546 332.586 388.659 331.977 388.209 330.601C388.298 328.698 389.667 327.46 390.736 326.141C394.236 321.821 395.819 316.824 396.414 311.439C396.285 313.303 394.592 314.089 393.636 315.384C385.739 324.197 375.087 328.424 364.205 331.336C331.757 340.023 300.213 337.373 270.154 321.773C268.024 320.668 266.91 320.849 265.537 322.817C256.558 335.683 243.307 341.669 228.484 344.234C217.335 346.162 205.967 346.138 194.708 344.23C193.692 343.915 192.663 343.681 191.59 343.746C188.54 343.835 185.576 343.278 182.623 342.617C181.594 342.318 180.558 342.064 179.472 342.133C177.067 342.012 174.592 342.157 172.575 340.459C172.612 337.869 174.653 338.394 176.014 338.559C186.284 339.785 196.587 340.951 206.906 341.209C225.305 341.669 242.874 338.781 257.081 325.584C259.673 323.176 261.491 320.208 262.998 317.247C258.057 321.749 252.002 324.35 245.34 325.721C238.285 327.734 231.174 326.875 224.119 325.891C204.598 323.168 186.746 316.041 170.36 305.2C169.797 304.829 169.307 304.369 168.938 303.796C168.096 302.175 168.813 300.473 168.675 298.811C168.752 298.162 168.93 297.569 169.607 297.283C169.74 297.299 169.939 297.263 169.995 297.335C173.183 301.449 178.282 302.929 182.117 306.087C184.648 308.173 187.123 309.56 190.435 309.33C193.027 309.149 195.081 309.939 196.518 312.355C198.13 315.069 201.022 315.586 203.897 315.699C208.919 315.896 213.589 316.848 218.117 319.369C222.426 321.765 227.002 322.987 231.052 317.909C233.223 315.19 237.828 316.469 240.727 319.921C239.78 323.092 237.054 322.083 234.968 322.583C258.498 321.361 270.474 309.072 268.076 286.667C266.971 276.479 259.875 272.014 251.213 268.961C251.954 271.212 255.356 272.575 253.027 275.588C249.078 276.637 248.09 276.048 247.551 272.345C246.62 265.948 246.584 266.247 240.108 265.452C232.956 264.573 225.901 263.04 219.008 260.79C216.035 259.822 212.917 260.834 209.879 261.314C203.695 262.29 197.575 263.924 191.221 263.391C188.2 263.137 185.531 264.932 182.542 264.819C180.311 262.988 180.979 261.532 183.174 260.338C184.79 259.455 186.762 259.556 188.338 258.535C190.869 257.515 193.55 257.104 196.231 256.962C216.019 255.906 235.564 256.934 254.351 264.065C255.21 264.392 256.19 265.041 257.024 264.404C258.13 263.557 257.344 262.387 257.036 261.443C254.355 253.24 249.236 246.428 243.858 239.906C241.485 237.026 237.374 236.123 233.903 234.751C222.798 230.363 211.288 227.854 199.256 227.625C189.099 227.431 179.063 228.133 169.096 230.012C168.056 230.085 167.011 230.165 166.027 230.553C162.795 231.242 159.765 232.831 156.359 232.771C155.452 232.456 155.027 231.843 155.181 230.875C156.185 229.173 157.955 228.762 159.656 228.234C160.563 228.076 161.491 228.024 162.374 227.721C162.726 227.58 163.082 227.467 163.439 227.346C164.394 227.044 165.277 226.58 166.18 226.152C172.49 223.535 179.201 222.643 185.891 222.321C201.395 221.575 216.804 222.123 231.66 227.52C234.58 228.58 237.402 229.778 240.168 231.137C243.101 232.678 243.465 231.25 242.866 228.79C241.023 221.252 237.641 214.343 233.057 208.184C223.159 194.883 211.434 183.529 196.036 176.576C182.656 170.53 168.643 169.025 154.177 171.272C153.622 171.357 153.172 171.627 152.751 171.97C151.767 173.397 152.386 174.862 152.751 176.245C156.048 188.768 152.751 199.904 145.4 210.064C140.095 217.396 135.138 224.918 132.307 233.549C129.334 242.616 127.18 251.885 128.148 261.56C128.524 265.323 129.978 268.542 133.259 270.748C135.498 272.252 134.146 273.152 132.586 273.704C129.326 274.858 125.896 274.572 122.571 274.241C118.962 273.882 115.326 273.483 111.81 272.47C107.906 271.405 103.962 270.421 100.41 268.425C97.6963 266.9 96.2707 267.913 95.0841 270.466C87.1017 287.647 79.3299 304.922 72.0684 322.418C63.8552 342.201 56.5734 362.319 53.617 383.615C51.8269 396.501 52.0699 409.452 59.4043 421.071C66.111 431.691 75.5392 439.394 86.5347 445.235C96.7162 450.639 107.639 454.079 118.821 456.766C142.027 462.335 165.581 466.264 188.828 471.648C203.347 475.012 217.695 473.608 232.129 470.793C249.313 467.446 266.489 463.824 284.086 463.227C285.183 463.191 286.196 462.807 287.257 462.614C302.744 461.872 318.231 461.121 333.584 458.863C341.295 456.959 349.03 455.213 354.98 449.268C357.64 446.61 359.592 443.682 360.37 440.04C361.48 434.817 362.67 429.59 362.075 424.205C361.395 423.322 360.569 423.818 359.771 423.975C359.386 424.076 359.005 424.141 358.616 424.185C346.779 424.883 335.475 427.512 324.775 432.772C318.988 435.619 313.071 438.229 306.976 440.431C281.846 449.51 252.586 440.104 237.447 418.329C233.255 412.303 228.934 406.245 222.859 401.752C220.599 400.078 218.708 397.92 216.829 395.811C212.382 390.822 210.985 385.042 212.572 378.581C215.197 367.889 221.276 359.673 230.704 353.958C236.24 350.602 242.266 349.836 248.613 350.929C258.887 352.7 268.542 356.636 278.541 359.363C283.616 360.746 288.759 361.807 293.883 362.976C294.919 363.214 296.175 363.618 296.989 362.811C297.957 361.855 296.92 360.823 296.551 359.875C292.202 348.674 300.695 336.252 312.796 335.861C320.284 335.619 327.221 337.216 333.709 340.886C334.86 341.568 336.168 341.528 337.435 341.677C346.669 344.069 355.692 341.991 364.716 340.354C370.426 339.317 376.076 338.918 381.721 340.576C382.304 340.842 382.827 341.201 383.297 341.632C384.524 342.431 384.661 343.948 385.516 344.996C389.287 350.255 388.351 355.374 382.718 359.951C381.373 361.044 379.899 361.976 378.076 363.275C387.136 362.234 395.677 361.242 404.223 360.282C405.154 360.177 406.11 360.161 407.045 360.218C411.079 360.468 412.46 361.512 413.752 365.412C415.858 371.769 416.097 378.012 412.565 384.042C411.966 385.066 411.594 386.252 411.274 387.406C407.916 399.562 401.141 409.205 390.23 415.784C384.593 419.184 378.259 420.462 371.872 421.592C365.319 422.749 366.7 421.418 366.157 427.847C365.761 432.53 365.53 437.196 364.469 441.798C363.213 447.259 360.241 451.684 355.915 455.06C350.205 459.512 343.482 462.005 336.439 463.396C330.514 464.57 324.532 465.546 318.024 465.994C320.341 467.865 322.84 468.321 325.12 469.144C354.587 479.803 383.483 491.734 410.913 506.984C423.338 513.893 434.864 521.963 444.438 532.554C453.271 542.327 458.641 553.943 462.533 566.361C465.47 575.73 467.632 585.273 469.082 594.961C469.937 600.66 470.39 606.423 470.856 612.171C472.63 634.023 472.245 655.915 471.909 677.804C471.569 699.825 470.739 721.835 470.844 743.864C470.909 757.573 471.933 771.19 474.136 784.737C475.125 790.82 476.202 796.882 477.259 802.952C477.372 803.609 477.546 804.279 477.526 804.94C477.141 818.23 478.672 831.515 477.636 844.805C477.449 847.204 477.121 849.596 476.858 851.992H472.002C470.909 850.762 470.973 849.31 471.127 847.805C473.31 826.094 473.565 804.48 469.24 782.902C467.426 773.856 467.037 764.567 466.644 755.291C466.243 745.768 465.632 736.238 466.061 726.735C467.531 693.989 466.968 661.231 466.62 628.493C466.361 603.995 462.942 579.832 453.729 556.754C447.055 540.032 434.868 528.219 420.455 518.329C406.078 508.464 390.226 501.224 374.496 493.851C360.589 487.33 346.28 481.711 331.895 476.311C329.121 475.27 326.545 473.798 323.965 472.354L323.957 472.358Z" fill="#080302"/>
<path d="M160.393 852C160.855 851.754 161.329 851.278 161.77 851.302C166.768 851.585 171.753 850.879 176.617 850.213C184.113 849.185 191.695 850.488 199.106 848.854C199.495 848.769 199.916 848.786 200.317 848.81C207.194 849.278 214.018 848.217 220.834 847.785C227.751 847.346 234.693 846.583 241.61 845.817C249.609 844.93 257.466 843.304 265.42 842.24C269.385 841.707 273.285 840.638 277.185 839.687C285.775 837.593 294.271 835.137 302.452 831.79C313.456 827.288 323.54 821.388 331.741 812.519C333.884 810.2 333.738 807.562 334.163 805.101C336.435 791.945 339.594 778.986 342.506 765.971C345.624 752.04 349.569 738.327 353.266 724.557C356.105 713.986 359.73 703.617 363.124 693.199C366.433 683.039 369.758 672.879 373.326 662.808C377.388 651.334 381.685 639.944 385.949 628.546C388.379 622.052 390.975 615.619 393.426 609.13C393.778 608.202 394.134 607.412 395.033 606.944C396.69 608.968 395.548 611.15 395.082 613.09C391.336 628.719 388.076 644.457 385.241 660.263C381.932 678.707 379.299 697.264 376.845 715.846C374.946 730.208 373.548 744.631 372.354 759.046C371.483 769.573 371.058 780.18 370.296 790.731C368.924 809.756 368.713 828.785 368.782 847.83C368.786 849.318 368.668 850.794 367.591 851.988H160.393V852Z" fill="#328859"/>
<path d="M398.358 601.35C397.678 607.311 396.552 613.195 395.548 619.108C393.851 629.094 391.749 639 390.028 648.982C388.963 655.157 388.44 661.397 387.278 667.559C386.593 671.189 386.642 674.993 386.229 678.715C385.346 686.669 384.641 694.643 383.864 702.612C383.839 702.879 383.827 703.149 383.807 703.415C382.88 716.124 382.487 728.873 383.102 741.582C383.758 755.077 385.553 768.52 391.494 780.902C394.734 787.654 399.067 793.675 404.895 798.729C418.227 810.288 433.949 816.104 451.048 819.024C455.009 819.702 458.949 820.444 462.975 820.637C464.178 821.577 464.291 822.953 464.283 824.275C464.247 831.91 465.125 839.481 465.85 847.063C466.016 848.806 465.988 850.56 464.712 852H370.827C369.45 850.431 369.563 848.499 369.628 846.64C370.377 826.151 370.661 805.654 371.799 785.169C372.69 769.117 374.095 753.101 374.942 737.04C375.659 723.416 377.878 709.88 379.717 696.337C382.114 678.707 385.091 661.171 388.371 643.699C391.008 629.651 393.592 615.575 397.192 601.721C397.451 601.188 397.836 601.067 398.358 601.35Z" fill="#328859"/>
<path d="M79.4879 614.208C80.063 614.591 80.2452 615.168 80.2695 615.809C80.31 616.853 80.8406 617.402 81.8895 617.454C83.9428 617.378 83.6998 619.269 83.9388 620.278C84.9756 624.622 86.2837 628.905 87.0329 633.317C87.3164 633.914 87.4865 634.539 87.527 635.201C87.446 636.387 88.1304 637.346 88.5071 638.395C93.5492 660.046 98.1499 681.773 101.795 703.706C104.124 717.705 106.189 731.745 107.854 745.821C109.648 760.99 110.243 776.207 109.324 791.562C108.558 804.388 107.7 817.278 108.222 830.164C108.473 836.363 107.457 842.478 107.327 848.644C107.303 849.875 107.019 851.04 106.165 851.996H16.3253C14.6851 847.584 12.3443 843.3 13.8346 838.323C14.2639 835.105 14.2639 835.068 17.3864 835.056C23.9918 835.036 30.6013 834.992 37.2027 835.085C46.1814 835.21 54.8887 833.758 63.1465 830.289C69.031 827.817 73.9071 823.9 77.9287 818.859C84.9391 810.058 87.5716 799.527 89.8841 788.944C91.7349 780.462 92.1115 771.771 92.5611 763.083C92.9134 756.259 93.4561 749.434 93.1159 742.622C92.6988 734.221 92.8324 725.779 91.6822 717.419C91.5 716.1 91.6053 714.736 91.6053 713.393C91.6174 706.166 90.7021 699.007 90.1352 691.815C89.633 685.427 88.9769 679.05 88.2722 672.69C87.6404 667.003 87.0734 661.296 86.2877 655.613C85.5952 650.604 84.7852 645.594 84.1777 640.565C83.5095 635.035 81.9584 629.607 80.7596 624.142C80.0428 620.879 79.1234 617.648 79.4272 614.252L79.4879 614.2V614.208Z" fill="#318859"/>
<path d="M13.8304 838.327C14.523 841.836 15.2357 845.341 15.904 848.854C16.1024 849.891 16.1875 850.951 16.3211 852H14.7012C14.9482 850.568 14.203 849.37 13.6806 848.164C8.21318 835.492 5.62528 822.045 2.89968 808.639C2.74173 807.856 2.69719 807.033 2.73364 806.235C3.09003 798.729 3.51932 791.227 3.84331 783.717C4.03771 779.155 4.24021 774.59 4.15921 770.028C3.98911 760.199 5.16359 750.491 6.30162 740.755C7.67049 729.026 8.44402 717.241 9.15681 705.452C10.0559 690.561 10.0113 675.658 9.96274 660.759C9.88985 638.189 10.4649 615.639 12.2509 593.15C13.5226 577.094 15.8149 561.142 21.7156 545.969C27.4503 531.228 37.1985 519.692 50.3526 510.96C60.1372 504.467 70.7318 499.466 81.3709 494.594C100.807 485.692 120.769 478.061 140.82 470.664C141.695 471.608 140.585 471.721 140.188 472.064C133.141 478.19 125.11 482.772 116.763 486.874C106.987 491.677 97.3438 496.759 87.4823 501.381C80.7878 504.515 74.1297 507.714 67.5324 511.033C59.3677 515.143 51.1383 519.241 44.1319 525.17C35.6838 532.312 30.3176 541.561 27.7135 552.225C25.5266 561.17 24.4007 570.31 23.4206 579.489C22.4365 588.669 22.4932 597.913 21.2539 607.057C21.2013 607.452 21.2053 607.863 21.2175 608.263C21.5415 621.544 20.5897 634.805 20.0835 648.051C19.7555 656.71 19.8446 665.418 19.0184 674.101C18.4149 680.458 18.095 686.907 17.8722 693.328C17.6535 699.596 17.3903 705.883 16.4588 712.107C16.3414 712.897 16.3576 713.712 16.3495 714.519C16.2806 721.077 15.5719 727.574 14.8469 734.088C14.446 737.665 14.2516 741.283 14.0046 744.877C13.4943 752.205 12.826 759.53 12.1092 766.826C10.7201 780.999 10.3758 795.18 10.7565 809.369C10.9509 816.548 11.3843 823.787 12.903 830.866C13.4335 833.334 12.2469 835.996 13.8304 838.315V838.327Z" fill="#81E9B0"/>
<path d="M464.716 852C464.822 846.148 463.894 840.372 463.356 834.568C462.922 829.922 463.327 825.268 462.979 820.629C463.019 804.92 463.007 789.21 463.129 773.505C463.173 767.616 463.311 761.74 463.663 755.843C464.251 745.982 463.878 736.064 463.898 726.171C463.91 720.798 464.247 715.402 463.821 710.062C463.08 700.689 463.647 691.279 462.898 681.95C462.371 675.376 462.991 668.765 462.108 662.292C461.29 656.295 461.74 650.277 460.922 644.284C460.367 640.222 460.027 636.044 459.893 631.901C459.739 627.082 458.897 622.335 458.508 617.547C458.062 612.082 457.463 606.645 456.629 601.233C455.146 591.605 454.012 581.909 450.951 572.588C450.367 570.814 449.991 568.967 449.359 567.208C444.657 554.112 437.363 542.884 426.655 533.68C420.515 528.404 414.108 523.568 407.426 519.1C401.404 515.074 395.114 511.404 388.74 507.948C376.327 501.22 363.918 494.46 351.229 488.269C342.036 483.784 333.086 478.952 324.5 473.431C324.115 473.185 323.293 473.133 323.961 472.354C327.464 472.862 330.591 474.52 333.827 475.758C360.848 486.095 387.407 497.453 412.521 511.904C422.601 517.704 431.799 524.673 439.915 533.03C448.144 541.5 453.453 551.672 457.256 562.679C462.226 577.057 464.992 591.884 466.466 607.016C467.742 620.132 468.159 633.265 468.094 646.413C467.96 673.125 467.681 699.833 467.405 726.542C467.28 738.758 467.215 750.979 468.086 763.168C468.916 774.804 470.532 786.363 473.027 797.777C473.436 799.644 473.529 801.488 473.533 803.363C473.541 811.014 473.391 818.669 473.594 826.312C473.821 834.935 472.93 843.462 472.01 852H464.724H464.716Z" fill="#81E8AF"/>
<path d="M397.56 601.354C395.463 611.84 393.182 622.298 391.303 632.825C388.622 647.841 386.172 662.897 383.742 677.957C382.078 688.262 380.486 698.583 379.101 708.929C377.858 718.209 376.8 727.522 375.962 736.843C375.727 739.444 376.055 742.11 375.841 744.78C374.658 759.602 373.65 774.437 372.58 789.267C372.56 789.533 372.552 789.803 372.544 790.07C372.265 797.438 371.941 804.803 371.718 812.172C371.361 824.102 371.066 836.036 370.762 847.971C370.73 849.31 370.803 850.649 370.827 851.992H367.591C367.376 838.436 367.299 824.876 367.854 811.337C368.223 802.371 369.008 793.421 369.328 784.443C369.482 780.172 370.065 775.905 370.649 771.666C371.001 769.105 370.236 766.588 370.547 764.095C371.892 753.343 372.641 742.53 373.836 731.761C374.808 722.984 376.108 714.261 377.161 705.504C378.838 691.565 381.203 677.748 383.588 663.917C386.52 646.909 390.06 630.034 393.919 613.22C394.393 611.159 395.134 609.122 395.037 606.952C395.637 604.596 396.24 602.241 396.839 599.886C398.168 599.841 398.063 600.499 397.564 601.35L397.56 601.354Z" fill="#020E04"/>
<path d="M106.165 852C106.476 841.417 106.817 830.838 107.088 820.25C107.375 809.143 107.841 798.027 108.38 786.915C108.923 775.683 108.825 764.454 107.367 753.206C106.545 746.873 105.622 740.501 105.229 734.08C104.913 728.901 103.812 723.771 102.997 718.628C101.977 712.167 100.892 705.718 99.8466 699.261C98.5223 691.073 96.8983 682.938 95.3796 674.783C93.063 662.328 89.9284 650.051 87.5349 637.617C86.8505 636.931 87.4134 635.915 86.8788 635.189C86.81 634.676 86.7452 634.168 86.6763 633.656C86.4981 632.704 85.5504 631.506 87.4539 631.208C87.9277 633.366 88.2558 635.56 89.1832 637.592C89.8514 638.278 89.2926 639.294 89.8393 640.012C89.9041 640.529 89.9689 641.049 90.0296 641.565C90.6331 642.287 90.0904 643.312 90.6776 644.038C93.1643 652.511 94.8004 661.179 96.6553 669.794C100.689 688.524 103.617 707.452 106.764 726.34C111.041 751.987 111.689 777.833 110.696 803.73C110.348 812.849 110.466 821.968 110.121 831.084C109.858 838.053 109.635 845.022 109.396 851.992H106.16L106.165 852Z" fill="#021305"/>
<path d="M385.524 345.004C384.674 344.202 383.819 343.395 382.969 342.592C384.435 339.971 386.184 337.506 387.541 334.651C386.067 335.082 385.006 336.046 383.714 336.555C376.031 340.156 367.583 340.152 359.471 341.709C353.412 342.871 347.285 343.048 341.133 342.629C339.667 342.528 338.189 342.576 336.881 341.741C337.5 339.394 339.521 339.955 341.093 339.862C346.507 339.539 351.902 338.946 357.317 338.72C366.818 337.442 376.177 335.659 384.698 330.924C385.852 330.283 387.104 329.634 388.529 330.247C389.011 331.344 390.141 331.606 391.024 332.187C390.064 335.405 388.339 338.232 386.508 341.007C385.71 342.213 384.641 343.375 385.524 345V345.004Z" fill="#30110C"/>
<path d="M87.4581 631.212C86.5549 631.825 86.8263 632.805 86.6805 633.66C84.9795 629.901 84.4247 625.827 83.5013 621.859C83.1409 620.31 82.9141 618.749 81.8894 617.458C81.2091 611.332 79.1436 605.524 77.6168 599.599C75.3893 590.964 72.8784 582.401 70.4039 573.831C70.0272 572.524 69.8936 571.225 69.764 569.902L69.7073 569.947C71.9752 574.057 72.8662 578.651 74.1784 583.067C78.3863 597.248 82.3471 611.505 86.3565 625.747C86.8587 627.529 87.0976 629.385 87.4621 631.208L87.4581 631.212Z" fill="#0D3916"/>
<path d="M397.56 601.354C397.402 600.825 397.487 600.176 396.835 599.89C397.354 594.779 398.917 589.932 400.258 584.337C401.582 587.653 399.565 589.984 399.954 592.493L399.974 592.468C399.152 592.993 399.026 593.941 399.31 594.594C400.399 597.091 399.229 599.18 398.358 601.35C398.091 601.35 397.828 601.35 397.56 601.358V601.354Z" fill="#2A7C48"/>
<path d="M399.954 592.493C400.363 592.182 400.772 591.871 401.388 591.404C401.732 592.9 400.8 593.888 400.472 595.146C399.541 594.255 400.169 593.299 399.974 592.472L399.954 592.497V592.493Z" fill="#2A7C48"/>
<path d="M69.7599 569.902C69.1888 569.717 69.0471 569.253 69.0754 568.741C69.0835 568.547 69.2982 568.362 69.4197 568.176C69.5047 568.398 69.6303 568.612 69.6627 568.842C69.7113 569.205 69.6951 569.58 69.7072 569.947L69.7639 569.902H69.7599Z" fill="#0D3916"/>
<path d="M79.4271 614.26C79.2489 614.095 78.9978 613.966 78.9006 613.76C78.69 613.316 78.4956 612.828 79.0991 612.493C79.2206 612.816 79.3745 613.135 79.4555 613.47C79.5122 613.703 79.4798 613.962 79.4879 614.208L79.4271 614.26Z" fill="#318859"/>
<path d="M89.8434 640.02C89.0051 639.379 89.1063 638.488 89.1873 637.601C89.9163 638.27 89.9933 639.117 89.8434 640.02Z" fill="#0D3916"/>
<path d="M90.6818 644.046C89.8151 643.392 89.9082 642.485 90.0338 641.573C90.7587 642.267 90.8033 643.134 90.6818 644.046Z" fill="#0D3916"/>
<path d="M358.029 339.495C357.247 340.124 356.288 340.197 355.368 340.16C349.747 339.947 344.239 341.439 338.618 341.197C337.937 341.169 337.289 341.29 336.82 341.854C336.658 341.955 336.5 342.06 336.338 342.161C335.41 342.124 334.434 342.483 333.588 341.818C330.162 339.983 326.444 338.975 322.754 337.829C318.781 336.599 314.752 336.284 310.771 337.022C299.074 339.192 293.149 351.131 298.131 360.827C298.669 361.875 299.471 362.847 299.419 364.303C297.722 364.787 295.988 364.561 294.336 364.219C286.163 362.537 278.067 360.536 270.105 358.011C263.318 355.858 256.57 353.599 249.544 352.208C239.212 350.167 230.704 353.151 223.685 360.786C218.894 365.997 215.103 371.769 213.572 378.807C212.264 384.825 213.305 390.273 217.477 394.944C219.708 397.445 221.952 399.941 224.661 401.982C229.89 405.922 233.871 411.069 237.406 416.417C246.344 429.94 258.859 438.112 274.503 441.476C289.577 444.718 303.874 441.726 317.55 434.974C325.504 431.046 333.503 427.093 342.283 425.33C347.937 424.197 353.623 422.939 359.471 423.298C361.01 423.878 361.37 425.205 361.204 426.561C360.265 434.224 359.588 441.875 354.348 448.328C349.763 453.971 343.336 456.04 337.05 458.581C336.212 458.919 335.163 458.698 334.519 459.536C330.008 460.952 325.302 461.218 320.652 461.702C309.418 462.868 298.139 463.473 286.844 463.622C283.122 464.522 279.679 462.924 276.168 462.279C266.238 460.452 256.433 457.883 246.199 458.173C240.12 458.347 234.134 459.375 228.112 460.012C214.881 461.416 201.755 460.097 188.588 459.298C176.175 458.544 163.957 456.451 151.795 454.075C132.254 450.256 113.296 444.609 96.2544 434.006C82.8572 425.669 75.8549 413.384 75.0773 397.618C74.1863 379.484 78.4874 362.19 83.5862 345.032C90.5885 321.466 99.0326 298.392 107.59 275.358C108.287 273.487 108.728 270.95 111.83 271.583C117.674 272.442 123.478 273.664 129.452 273.184C130.938 273.063 132.404 272.987 133.902 272.269C129.674 270.538 127.852 267.066 127.078 262.972C125.859 256.503 127.111 250.122 128.334 243.818C130.776 231.222 136.446 220.103 144.238 209.911C148.851 203.877 152.022 197.02 152.787 189.361C153.269 184.529 152.382 179.746 151.289 175.027C151.046 173.986 150.774 172.942 150.689 171.885C150.616 171.014 151.317 170.836 152.058 170.889C173.264 170.683 192.752 176.37 210.527 187.845C224.151 196.641 234.219 208.45 239.978 223.62C240.954 226.193 243.092 229.181 240.504 232.178C236.608 230.754 232.797 229.149 228.812 227.895C209.863 221.934 190.743 221.724 171.445 225.66C169.347 226.088 167.322 226.854 165.261 227.463C164.536 228.004 163.491 227.419 162.823 228.157C162.106 228.847 161.021 228.286 160.28 228.899C158.712 229.48 157.141 230.065 155.574 230.645C152.581 233.324 148.474 233.973 145.246 236.268C144.303 236.941 143.302 237.583 142.383 238.224C142.112 238.224 142.031 238.337 142.185 238.539C142.197 238.305 142.33 238.159 142.606 238.091C146.87 235.385 150.997 232.424 156.307 232.198C159.579 231.335 162.847 230.472 166.12 229.609C166.824 229.149 167.78 229.673 168.44 229.028C179.432 226.769 190.541 225.858 201.739 226.467C214.334 227.149 226.354 230.097 237.953 235.175C242.728 237.268 246.142 240.136 248.924 244.463C252.63 250.223 256.672 255.74 258.523 262.452C258.77 263.347 258.923 264.271 259.069 265.19C259.15 265.711 259.114 266.247 258.68 266.67C257.684 266.876 256.87 266.287 256.02 265.948C244.04 261.197 231.574 258.806 218.74 257.983C209.312 257.378 199.932 257.531 190.581 258.91C189.933 259.007 189.313 259.29 188.682 259.487C172.984 263.605 157.797 269.058 143.505 276.81C142.614 277.294 140.601 277.907 142.557 279.218C146.413 281.807 148.822 285.768 152.277 288.769C156.938 292.822 161.725 296.67 166.691 300.324C167.776 301.122 168.821 301.973 169.169 303.373C173.879 306.18 178.605 308.939 183.449 311.524C196.871 318.691 211.147 322.926 226.18 324.955C232.623 325.826 239.006 325.931 245.401 324.741C245.907 324.56 246.531 324.306 246.822 324.903C247.32 325.927 246.348 326.27 245.733 326.669C241.035 329.694 235.851 331.626 230.457 332.876C218.619 335.627 206.59 336.845 194.441 337.357C186.304 337.7 178.115 337.442 170.076 338.958C170.866 339.418 172.101 339.14 172.798 340.047C175.106 340.689 177.488 340.846 179.861 341.076C180.614 341.677 181.615 341.205 182.4 341.661C185.616 342.02 188.836 342.379 192.051 342.738C192.776 343.262 193.716 342.81 194.453 343.262C202.488 344.266 210.555 344.609 218.639 344.222C232.255 343.568 244.838 339.834 255.866 331.565C260.009 328.46 263.528 324.822 265.946 320.204C266.481 319.183 266.938 318.288 268.335 319.236C278.302 326.012 289.65 329.355 301.213 331.977C312.67 334.57 324.326 335.292 336.078 334.816C345.276 334.445 354.267 333.025 363.124 330.561C370.952 328.383 378.283 325.08 385.37 321.172C388.48 319.458 390.655 316.642 393.438 314.545C395.264 318.937 392.802 322.317 390.489 325.495C388.083 328.803 384.694 331.162 380.842 332.598C373.427 335.365 366.016 338.204 358.025 338.946C357.92 338.954 357.827 339.112 357.729 339.2C357.831 339.289 357.932 339.378 358.033 339.467L358.029 339.495Z" fill="#C47A47"/>
<path d="M125.462 269.207C125.722 269.494 126.106 269.74 126.208 270.075C126.374 270.619 125.9 270.663 125.511 270.623C112.661 269.304 100.863 265.275 90.7829 256.999C81.9055 249.707 74.3484 241.237 67.6052 231.92C57.0836 217.384 48.6071 201.731 41.382 185.404C36.0685 173.402 31.6946 161.032 28.1509 148.355C24.8624 136.586 22.5013 124.66 20.5533 112.629C19.9984 109.196 19.7959 105.707 19.5408 102.235C18.8159 92.3332 18.4595 82.4154 19.6623 72.538C20.2252 67.924 20.9299 63.2696 22.8415 58.9338C24.2306 58.4095 25.5306 57.744 26.8104 56.9737C33.104 53.1744 37.5184 54.2069 41.4671 60.4302C44.4478 65.1209 46.5457 70.2552 47.8254 75.6113C51.9766 92.9382 61.9799 106.361 75.3487 117.69C85.5059 126.297 95.6348 134.969 104.881 144.548C113.041 153.001 120.173 162.286 124.28 173.47C128.54 185.07 128.727 196.548 122.838 207.765C121.089 211.092 119.331 214.416 117.537 217.719C108.817 233.787 110.15 249.404 120.003 264.521C121.34 266.57 123.352 267.977 125.458 269.211L125.462 269.207Z" fill="#ECDBBF"/>
<path d="M395.965 4.22284C398.913 3.61786 401.857 4.23091 404.842 4.16234C404.607 5.33199 403.591 5.21906 402.923 5.41669C385.561 10.4824 373.589 21.8562 365.404 37.481C358.596 50.4721 356.174 64.4514 356.146 79.0437C356.122 92.8656 357.487 106.655 356.924 120.481C356.203 138.191 351.93 154.889 342.571 170.127C342.364 170.461 342.073 170.744 341.821 171.054C338.796 172.526 337.083 170.163 335.135 168.703C325.35 161.358 314.808 155.716 302.497 153.877C298.609 153.296 294.717 153.647 290.825 153.514C288.958 153.449 287.05 153.756 285.272 152.892C283.604 151.36 284.471 149.622 285.038 148.045C292.489 127.33 298.459 106.022 308.345 86.2592C320.58 61.7894 335.572 39.2879 357.823 22.4572C367.117 15.4272 377.473 10.2606 388.1 5.57802C390.639 4.46081 393.381 4.8964 395.965 4.23091V4.22284Z" fill="#C47A47"/>
<path d="M111.826 271.595C110.255 271.801 109.745 272.866 109.226 274.249C105.715 283.634 102.127 292.991 98.9112 302.49C95.566 312.375 91.6578 322.083 88.6042 332.05C86.1054 340.205 83.2623 348.299 81.772 356.753C81.4075 358.83 80.5489 360.811 80.0102 362.88C76.9242 374.758 75.6363 386.809 76.2924 399.014C76.6002 404.737 78.3295 410.166 80.6461 415.538C83.4405 422.027 88.3895 426.536 93.4236 430.832C98.1701 434.881 104.192 437.188 109.814 440.008C118.031 444.134 126.835 446.638 135.523 449.248C142.371 451.309 149.483 452.934 156.671 453.866C160.251 454.33 163.775 455.229 167.351 455.709C173.446 456.532 179.561 457.242 185.661 458.008C191.667 458.758 197.701 458.726 203.703 459.214C211.297 459.831 219.024 460.158 226.658 458.859C229.566 458.363 232.522 458.484 235.466 458.085C239.553 457.528 243.684 456.955 247.888 456.988C253.841 457.032 259.636 457.951 265.436 459.032C270.433 459.964 275.419 460.948 280.408 461.924C282.591 462.352 284.426 464.086 286.848 463.638C285.795 464.473 284.527 464.207 283.341 464.255C273.495 464.687 263.804 466.312 254.104 467.906C243.218 469.692 232.413 471.923 221.551 473.822C210.288 475.791 199.062 475.069 187.872 472.616C172.11 469.16 156.307 465.897 140.48 462.743C124.648 459.593 108.854 456.237 93.865 449.933C83.4243 445.541 74.0123 439.661 66.1555 431.522C57.0431 422.084 51.9483 411.008 51.7054 397.61C51.4421 383.147 54.7549 369.405 58.8454 355.765C63.28 340.967 69.0188 326.661 75.1301 312.464C80.1196 300.876 85.4209 289.434 90.4266 277.855C91.9697 274.285 93.7192 270.805 95.3838 267.284C95.9345 266.122 96.542 265.037 98.0972 266.037C102.321 268.756 107.181 269.913 111.83 271.587L111.826 271.595Z" fill="#A95F33"/>
<path d="M353.056 374.04C352.218 373.237 352.38 371.664 350.82 371.237C352.679 380.138 351.902 388.785 349.2 397.299C348.237 400.332 347.836 400.506 344.612 400.32C334.957 399.764 325.581 401.135 316.647 404.878C309.847 407.729 303.23 411.029 296.377 413.739C284.523 418.426 272.333 420.358 259.705 417.026C257.121 416.344 254.517 415.743 251.921 415.106C249.807 407.838 244.145 403.055 239.468 397.606C237.03 394.767 234.049 392.407 232.069 389.152C228.237 382.86 229.051 376.802 234.462 371.757C238.8 367.711 244.06 366.026 249.884 365.715C256.085 365.384 262.245 365.961 268.384 366.631C278.254 367.703 288.128 368.458 298.066 368.216C309.463 369.41 320.883 370.055 332.349 370.039C338.294 370.031 344.195 369.595 350.1 368.95C357.584 368.131 365.084 367.373 372.597 366.929C377.979 366.61 383.236 365.175 388.659 365.352C392.231 365.09 395.795 365.316 399.379 364.574C405.741 363.255 409.528 367.437 408.852 373.87C407.604 385.756 398.759 390.874 389.704 395.823C387.035 397.279 384.111 398.28 381.519 399.929C377.708 401.442 373.642 401.099 369.693 401.337C364.934 401.623 360.123 401.764 355.385 400.788C354.348 399.179 355.429 397.719 355.721 396.21C357.211 388.535 358.126 380.937 353.06 374.044L353.056 374.04Z" fill="#ECDBBF"/>
<path d="M125.462 269.207C122.692 269.377 120.777 267.679 119.489 265.727C114.24 257.789 110.862 249.307 110.846 239.474C110.83 230.561 113.24 222.7 117.804 215.162C120.36 210.943 122.684 206.527 124.316 201.812C127.568 192.41 126.661 183.13 123.421 173.97C120.384 165.391 115.046 158.192 109.396 151.166C102.896 143.088 94.8977 136.538 87.3891 129.492C81.2454 123.724 74.397 118.739 68.4072 112.782C57.93 102.364 50.2635 90.4255 46.8413 75.8533C45.5332 70.2915 43.3625 64.8829 40.0253 60.0672C36.6679 55.2232 32.9785 54.348 27.9971 57.3931C26.9684 58.0223 25.9194 58.6757 25.0649 59.5066C23.8661 60.6762 23.5259 59.321 22.8496 58.9338C24.2833 52.4685 27.4422 46.9873 32.3629 42.5346C36.1819 39.0781 42.0341 39.5944 45.1201 43.7648C47.6837 47.2293 49.4697 51.1537 51.438 54.9651C55.6175 63.0598 59.4366 71.332 64.6529 78.8823C70.8695 87.8764 78.1351 95.8865 86.1053 103.34C95.6307 112.253 106.306 119.82 115.892 128.657C127.143 139.026 136.871 150.557 143.29 164.593C146.267 171.103 148.401 177.846 148.928 185.009C149.337 190.619 148.126 195.976 145.449 200.88C143.655 204.163 141.48 207.265 139.256 210.29C129.99 222.894 124.361 236.832 122.951 252.473C122.636 255.99 122.919 259.407 123.122 262.871C123.259 265.235 124.361 267.219 125.471 269.211L125.462 269.207Z" fill="#CAAC8C"/>
<path d="M425.051 7.98182C430.231 8.09072 435.411 8.20365 440.591 8.31255C437.185 11.5633 433.548 13.9672 430.215 16.7662C421.431 24.1471 414.246 32.7339 410.115 43.5349C407.127 51.3473 405.737 59.5429 405.057 67.8353C403.789 83.1898 402.85 98.5727 400.829 113.859C399.581 123.313 397.824 132.686 394.977 141.745C388.712 161.665 378.656 179.351 362.286 192.918C357.434 196.94 352.42 200.803 346.054 202.695C343.996 199.38 342.603 195.697 340.084 192.705C339.092 190.954 340.57 190.265 341.591 189.543C355.474 179.738 363.428 165.755 369.365 150.396C375.379 134.836 377.307 118.461 378.607 101.997C379.672 88.5097 379.713 74.9741 380.381 61.4708C380.911 50.7746 381.989 40.0341 387.565 30.4067C394.418 18.5812 404.976 11.6884 417.847 7.98586C420.139 7.3244 422.65 7.58656 425.056 7.97779L425.051 7.98182Z" fill="#ECDBBF"/>
<path d="M240.557 320.131C238.779 318.954 237.163 317.506 234.77 317.614C232.96 317.699 231.328 317.623 230.68 319.917C230.129 321.862 228.282 322.273 226.484 322.458C222.993 322.821 219.619 321.934 216.877 320.075C213.091 317.514 208.984 316.957 204.707 316.88C202.492 316.84 200.447 316.388 198.442 315.586C197.037 315.025 195.676 314.251 195.303 312.682C194.813 310.625 193.416 310.314 191.65 310.371C190.306 310.415 188.953 310.379 187.609 310.371C185.742 310.363 184.126 309.621 182.988 308.233C181.032 305.849 178.484 304.442 175.653 303.526C173.604 302.861 172.016 301.99 171.494 299.679C171.255 298.626 170.283 297.94 169.254 297.489C167.379 296.561 167.885 294.911 167.914 293.342C168.011 288.006 169.202 282.892 170.874 277.863C172.592 274.156 174.24 270.401 176.625 267.046C177.621 265.642 178.666 264.259 180.505 263.847C181.165 263.791 181.744 263.992 182.242 264.428C184.405 263.404 186.681 262.722 189.034 262.311C189.69 262.198 190.452 261.883 191.002 262.085C194.129 263.242 197.013 262.444 199.985 261.427C201.2 261.012 202.65 261.258 203.991 261.209C205.064 261.169 206.392 261.528 207.174 261.036C210.47 258.947 214.334 260.201 217.748 258.987C218.218 258.822 219.089 258.753 219.287 259.015C222.102 262.637 226.399 260.931 229.902 262.02C232.032 262.686 234.033 263.601 236.357 263.896C238.625 264.182 240.869 264.38 243.141 264.436C246.405 264.517 248.11 265.981 248.572 269.111C248.649 269.635 248.6 270.179 248.617 270.716C248.708 273.945 250.335 275.341 253.497 274.902C256.996 276.568 256.453 280.174 257.449 283.041C259.734 295.169 256.469 305.862 248.629 315.17C246.6 317.578 244.587 320.652 240.561 320.111L240.557 320.131Z" fill="black"/>
<path d="M344.871 225.628C330.607 224.342 316.509 226.064 302.387 227.754C293.461 228.822 284.572 230.085 275.682 231.4C272.102 231.928 268.623 233.069 264.97 233.11C260.333 233.553 259.069 232.594 258.883 228.113C258.693 223.575 258.956 219.026 258.794 214.488C258.466 205.365 255.765 197.17 248.989 190.64C247.774 189.47 246.187 188.466 246.227 186.441C248.131 185.667 250.034 184.888 251.937 184.114C259.203 182.904 266.432 181.525 273.783 180.75C292.603 178.766 310.536 181.504 326.48 191.842C338.407 199.569 346.276 210.302 344.879 225.624L344.871 225.628Z" fill="#C37946"/>
<path d="M381.32 316.844C379.765 317.614 378.076 318.195 378.04 320.434C378.016 321.857 376.792 322.434 375.646 322.85C374.52 323.257 373.35 323.64 372.167 323.769C369.316 324.076 367.105 325.431 365.323 327.569C364.043 329.105 362.354 329.392 360.463 329.868C356.162 330.948 351.691 329.98 347.475 331.348C347.098 331.469 346.633 331.388 346.301 331.57C339.404 335.312 332.721 333.175 326.023 330.908C324.075 330.247 322.033 330.323 320.077 330.884C317.651 331.578 315.323 331.626 313.059 330.4C311.949 329.799 310.621 329.283 309.641 330.134C307.191 332.255 305.064 330.626 302.958 329.73C300.82 328.819 298.179 328.04 299.467 324.616C299.771 323.81 299.087 322.842 298.301 322.769C296.527 322.6 296.612 320.857 295.624 320.067C294.077 318.889 293.712 317.167 293.874 315.449C294.421 309.665 294.887 303.841 297.803 298.598C298.904 296.315 299.735 293.883 301.387 291.898C302.387 290.697 303.189 289.144 305.174 289.402C307.992 288.845 310.779 288.478 313.379 286.877C315.691 285.453 318.599 285.893 321.163 286.651C322.69 287.103 323.212 288.648 323.107 290.261C322.155 292.314 320.073 292.27 318.324 292.717C315.995 293.31 314.27 294.661 314.039 296.956C313.606 301.32 312.82 305.7 313.176 310.084C313.363 312.363 313.581 315.195 316.781 315.602C320.025 316.017 322.965 315.267 324.836 312.283C325.986 310.447 326.476 308.366 326.816 306.233C327.61 301.248 328.145 296.238 328.436 291.201C329.084 290.854 329.518 290.378 329.173 289.608C328.679 288.511 328.161 287.426 327.614 286.353C326.857 284.869 327.234 283.723 328.72 283.058C330.599 282.215 332.154 280.989 333.511 279.48C334.378 278.52 335.439 278.177 336.731 278.145C339.865 278.073 342.955 277.415 346.078 277.133C351.092 276.681 356.134 276.06 361.115 275.209C362.427 274.983 363.464 275.419 364.622 275.624C368.745 274.725 371.058 277.714 373.382 280.069C376.659 283.392 379.53 287.119 381.547 291.406C384.949 298.344 385.957 305.543 383.856 313.049C383.434 314.557 383.106 316.203 381.332 316.856L381.32 316.844Z" fill="black"/>
<path d="M268.886 236.397C279.631 234.138 290.521 232.799 301.379 231.214C313.346 229.468 325.371 229.032 337.399 228.391C338.083 228.355 338.735 228.419 339.278 228.899C346.815 230.17 354.064 232.473 361.229 235.034C371.163 238.587 378.619 245.504 385.5 253.139C386.492 254.24 387.432 255.482 386.241 257.055C374.844 259.229 363.314 259.673 351.748 259.685C344.494 259.693 337.229 259.29 329.996 260.399C324.933 261.177 319.988 262.242 315.298 264.372C308.438 267.481 301.885 271.18 295.247 274.709C291.813 276.536 288.318 278.25 284.475 279.093C282.336 279.791 281.879 278.367 281.648 276.794C281.376 274.931 281.433 273.043 281.51 271.172C281.895 262.093 279.769 253.639 275.395 245.69C274.216 243.548 272.948 241.555 271.013 239.999C269.883 239.091 268.611 238.172 268.89 236.397H268.886Z" fill="#C27946"/>
<path d="M425.051 7.98181C416.429 7.42119 409.41 11.8094 402.623 15.9636C394.798 20.7551 389.112 27.8173 385.812 36.5009C383.807 41.7764 382.928 47.3302 382.159 52.9042C381.199 59.8414 381.851 66.8511 381.178 73.7601C380.486 80.8707 381.085 87.9894 380.397 95.0355C379.725 101.94 379.012 108.857 378.352 115.762C377.546 124.192 375.897 132.448 373.828 140.563C371.783 148.581 368.814 156.426 364.691 163.694C360.317 171.405 355.636 178.915 349.059 185.058C346.787 187.179 344.393 189.095 341.724 190.672C340.89 191.164 340.043 191.559 340.08 192.709C338.152 190.676 336.224 188.643 334.236 186.546C335.005 184.908 336.54 183.953 337.699 182.694C346.499 173.095 352.141 161.802 356.109 149.529C360.467 136.062 361.585 122.248 361.123 108.216C360.807 98.5565 360.475 88.9009 360.317 79.2373C360.131 67.8595 361.804 56.6753 366.093 46.1525C372.155 31.2698 381.875 19.3354 396.759 12.2772C401.627 9.96617 406.819 8.44564 412.266 8.09474C415.218 7.90518 418.122 7.10256 421.115 7.38086C422.439 7.50186 423.828 7.2034 425.051 7.98181Z" fill="#CBAC8B"/>
<path d="M185.43 490.185C183.158 485.599 182.117 480.634 180.752 475.553C182.437 474.867 183.98 475.387 185.462 475.698C188.617 476.359 191.82 476.819 194.947 477.513C204.484 479.63 213.941 478.811 223.385 477.226C233.709 475.492 243.979 473.459 254.294 471.689C264.225 469.983 274.188 468.583 284.28 468.111C287.998 467.938 291.691 467.377 295.705 467.708C295.49 478.88 293.271 489.334 288.484 499.228C281.838 502.507 274.625 503.406 267.392 504.043C248.783 505.685 230.388 504.08 212.187 500.047C202.828 497.969 194.048 494.287 185.434 490.185H185.43Z" fill="#CEAD8C"/>
<path d="M298.058 368.216C291.829 369.72 285.58 369.522 279.283 368.599C275.715 368.074 272.086 368.167 268.482 367.768C262.237 367.07 255.943 366.364 249.613 366.8C243.506 367.223 238.091 369.143 233.891 373.806C230.38 377.702 229.764 382.505 232.142 387.16C233.632 390.072 235.795 392.431 238.115 394.678C242.939 399.352 247.264 404.446 251.051 409.984C251.65 410.863 252.035 411.892 252.646 412.759C253.464 413.924 252.286 414.36 251.921 415.098C251.658 415.147 251.371 415.147 251.136 415.263C250.852 415.401 250.269 415.639 251.043 415.913C260.596 419.293 270.207 422.16 280.579 420.495C290.221 418.946 299.265 415.731 307.964 411.384C318.154 406.294 328.837 402.801 340.327 402.543C345.155 402.434 350.006 402.849 354.826 403.281C361.678 403.894 368.543 404.124 375.375 403.559C383.054 402.922 390.465 400.998 397.326 397.32C398.383 396.751 399.488 396.271 400.57 395.751C401.157 396.299 401.1 397.005 400.772 397.574C396.338 405.305 391.522 412.63 381.823 414.546C370.653 416.949 359.67 414.933 348.597 413.485C338.618 412.178 328.854 412.682 319.567 417.788C311.22 422.378 302.541 426.468 292.842 427.758C283.118 429.053 273.787 427.718 264.731 424.181C262.508 423.314 260.293 422.471 257.494 421.265C260.066 427.028 264.124 430.368 268.676 433.308C269.838 434.058 272.503 434.353 270.511 436.849C263.492 435.458 257.34 432.139 251.84 427.799C247.422 424.314 243.55 420.216 240.472 415.364C236.649 409.339 231.967 403.974 226.419 399.397C223.936 397.348 221.592 395.146 219.429 392.73C215.707 388.571 215.225 383.586 216.602 378.75C219.056 370.127 224.196 363.142 231.688 357.991C236.665 354.571 242.25 354.011 247.936 355.039C255.206 356.358 262.237 358.665 269.251 360.964C277.294 363.602 285.499 365.646 293.757 367.498C295.183 367.816 296.746 367.252 298.058 368.204V368.216Z" fill="#CCAC8E"/>
<path d="M185.43 490.185C185.908 489.338 186.292 488.467 187.536 489.395C193.141 493.569 199.92 495.041 206.339 497.28C211.26 498.994 216.452 499.817 221.551 500.938C224.317 501.547 227.16 501.785 229.894 501.986C234.563 502.333 239.184 503.362 243.923 503.067C247.531 502.842 251.075 504.136 254.736 503.797C263.127 503.019 271.572 502.721 279.882 501.244C281.83 500.898 283.632 499.8 285.556 499.244C286.459 498.982 287.512 498.006 288.48 499.228C281.109 515.788 269.462 527.755 251.407 532.244C236.637 535.914 223.07 532.264 210.904 523.637C198.973 515.179 190.65 503.805 185.43 490.185Z" fill="#ECDBBF"/>
<path d="M382.219 356.426C381.231 357.911 379.887 358.988 378.344 359.847C373.026 362.811 367.474 364.759 361.285 365.36C349.496 366.506 337.678 367.312 325.881 366.602C318.66 366.167 311.378 366.461 304.189 365.3C302.987 365.106 302.213 364.707 301.683 363.65C299.463 359.246 297.912 354.749 299.735 349.8C301.638 344.633 305.328 341.544 310.686 340.168C315.051 339.047 319.186 339.479 323.281 341.173C327.472 342.907 332.069 343.564 336.038 345.9C344.701 348.82 353.522 347.787 362.302 346.799C365.793 346.408 369.264 346.23 372.759 346.295C380.863 346.44 382.798 348.529 382.219 356.43V356.426Z" fill="#5A3620"/>
<path d="M283.385 280.694C291.25 279.036 298.228 275.277 305.323 271.728C311.2 268.788 317.056 265.775 323.504 264.077C328.898 262.653 334.382 262.25 339.873 262.117C349.702 261.883 359.54 261.992 369.373 261.919C375.853 261.871 382.199 260.556 388.61 259.842C391.255 261.189 391.834 263.932 392.871 266.303C394.098 269.107 394.705 272.127 395.515 275.068C395.904 276.475 396.232 278.008 394.341 278.762C391.98 277.81 389.991 276.201 387.606 275.225C377.428 271.059 366.911 271.264 356.255 272.325C341.817 273.765 328.246 278.472 314.541 282.791C307.13 285.127 299.658 287.458 291.841 288.188C288.217 288.527 284.588 288.74 281.036 287.631C281.113 285.078 279.999 282.126 283.393 280.69L283.385 280.694Z" fill="#C07947"/>
<path d="M270.51 436.857C271.247 435.66 270.413 435.228 269.514 434.829C264.727 432.715 261.204 429.206 258.073 425.101C256.785 423.411 256.923 421.297 255.704 419.482C258.664 420.587 261.686 421.547 264.492 422.854C269.073 424.984 273.799 426.165 278.788 426.468C280.668 426.581 282.433 427.254 284.357 427.283C292.858 427.412 300.86 425.379 308.535 421.947C314.399 419.321 320.073 416.24 326.023 413.836C333.479 410.827 341.348 411.589 349.111 412.424C355.097 413.069 361.026 414.045 367.048 414.55C372.232 414.985 377.116 413.743 382.15 413.61C380.316 417.151 376.63 416.344 373.65 417.191C373.131 417.337 372.852 417.514 373.374 417.385C373.399 417.377 373.484 417.607 373.54 417.728C370.709 418.635 367.777 418.974 364.837 419.188C357.45 419.724 350.079 420.386 342.822 421.91C334.082 423.749 325.934 427.266 317.947 431.126C310.783 434.591 303.489 437.866 295.592 438.983C287.156 440.177 278.667 439.911 270.506 436.845L270.51 436.857Z" fill="#EDDABF"/>
<path d="M285.001 152.392C288.5 152.396 291.999 152.489 295.498 152.392C306.47 152.102 316.315 155.708 325.597 161.088C329.631 163.427 333.799 165.601 337.184 168.977C338.326 170.114 339.861 171.3 341.825 171.046C339.805 175.709 336.071 179.076 332.859 182.843C331.883 183.989 330.907 183.977 329.7 183.182C328.129 182.15 326.497 181.202 324.848 180.294C312.65 173.567 299.415 171.986 285.754 172.538C284.005 172.611 282.251 172.68 280.502 172.748C279.376 172.793 278.57 172.377 278.861 171.131C279.805 167.106 279.558 162.891 280.846 158.922C282.041 157.874 282.17 156.345 282.656 154.974C283.073 153.792 283.162 152.3 284.997 152.388L285.001 152.392Z" fill="#A85F33"/>
<path d="M283.385 280.694C282.944 281.174 282.024 281.9 282.13 282.098C283.284 284.288 281.433 285.812 281.028 287.635C278.379 287.587 276.229 285.986 273.775 285.316C272.572 284.989 272.216 284.046 271.964 282.912C270.713 277.318 267.829 272.769 262.965 269.607C261.795 268.848 261.35 267.925 261.443 266.598C262.014 258.58 257.992 252.203 253.902 245.859C252.606 243.85 250.881 242.116 249.706 239.555C256.283 238.474 262.585 237.437 268.882 236.401C269.308 236.913 269.652 237.526 270.166 237.917C277.464 243.435 279.752 251.566 281.798 259.85C283.094 265.106 282.458 270.442 282.612 275.745C282.652 277.193 282.332 278.811 284.467 279.101C283.584 280.182 282.215 279.855 280.676 280.21C281.854 280.424 282.62 280.561 283.385 280.698V280.694Z" fill="#A86032"/>
<path d="M246.223 186.445C248.074 188.51 250.184 190.313 252.063 192.374C257.615 198.468 259.401 205.853 259.896 213.67C260.187 218.332 259.928 223.031 259.948 227.709C259.968 232.162 260.426 232.634 264.97 233.11C260.215 234.634 255.311 235.243 250.346 235.542C248.487 235.655 247.754 235.018 247.754 233.029C247.758 225.85 244.984 219.485 241.558 213.347C237.957 206.894 233.652 200.933 228.306 195.036C234.26 191.507 240.095 188.692 246.219 186.445H246.223Z" fill="#A66033"/>
<path d="M285.001 152.392C283.284 154.425 283.029 157.123 281.793 159.358C281.056 160.693 281.17 159.096 280.85 158.926C283.559 144.814 287.443 131.008 292.169 117.444C300.865 92.4663 312.662 69.0291 328.262 47.6166C338.128 34.0729 349.472 21.9006 364.092 13.213C371.438 8.84494 379.287 5.76757 387.845 4.69473C388.533 4.4487 389.303 4.67053 389.979 4.3398C391.976 4.3035 393.972 4.2672 395.969 4.22687C376.355 10.2888 359.354 20.6059 344.875 35.1256C332.924 47.1084 323.593 60.9586 315.161 75.5025C308.001 87.8523 302.683 101.025 297.779 114.351C293.384 126.285 289.44 138.385 285.321 150.42C285.106 151.041 285.106 151.735 285.005 152.396L285.001 152.392Z" fill="#E6A97F"/>
<path d="M172.794 340.068C170.603 340.531 168.659 339.612 166.687 339.14C166.589 338.503 166.962 338.079 167.278 338.099C170.931 338.366 174.369 337.083 177.913 336.615C179.48 336.409 180.797 337.289 182.255 336.966C189.253 335.421 196.441 336.853 203.472 335.538C207.008 334.877 210.649 335.232 214.273 334.691C222.9 333.401 231.429 331.868 239.61 328.811C241.934 327.944 243.757 326.016 246.239 325.362C246.316 325.342 245.725 324.931 245.393 324.765C247.936 323.539 250.852 323.559 253.399 322.269C257.615 320.131 261.678 317.812 265.237 313.73C263.03 322.112 257.725 327.367 251.346 331.578C240.772 338.555 229.027 341.713 216.331 342.173C205.542 342.564 194.894 341.588 184.215 340.471C181.278 340.164 178.322 340.096 175.402 339.592C174.543 339.442 173.511 339.124 172.794 340.072V340.068Z" fill="#A75E34"/>
<path d="M240.557 320.131C245.879 317.51 249.625 313.255 252.375 308.189C256.21 301.131 258.004 293.592 256.737 285.51C256.615 284.727 256.656 283.921 256.623 283.122C255.975 279.831 258.235 280.601 259.794 281.085C263.148 282.13 266.181 283.844 268.801 286.22C270.417 292.536 269.405 298.674 267.262 304.64C263.779 314.344 256.259 319.357 246.596 321.736C242.554 322.733 238.484 323.43 234.134 323.067C236.106 321.515 238.812 321.829 240.557 320.131Z" fill="#FDFDFD"/>
<path d="M305.166 289.394C302.169 291.741 300.431 294.98 298.795 298.295C296.227 298.485 293.773 299.219 291.295 299.844C282.984 301.941 279.955 305.737 279.602 314.356C279.501 316.856 279.926 319.514 277.78 321.507C275.127 320.244 272.491 318.949 269.818 317.727C268.238 317.005 267.667 316.037 268.17 314.243C269.348 310.008 269.903 305.652 271.454 301.457C273.078 297.069 273.066 292.274 272.871 287.623C274.034 287.184 274.815 287.825 275.634 288.192C282.041 291.023 288.731 290.894 295.438 289.898C298.479 289.446 301.537 288.966 304.514 288.059C306.227 287.538 305.137 288.841 305.161 289.398L305.166 289.394Z" fill="#CECECE"/>
<path d="M240.5 232.198C241.201 229.306 240.116 226.544 239.091 224.108C235.932 216.602 232.125 209.479 226.597 203.24C217.424 192.886 206.291 185.606 193.687 180.149C183.733 175.838 173.393 173.563 162.649 172.405C159.142 172.026 155.403 172.591 152.054 170.901C159.385 168.457 166.917 168.812 174.406 169.63C188.107 171.127 200.378 176.31 211.471 184.416C215.731 187.53 219.534 191.144 223.215 194.858C231.805 203.534 238.929 213.21 242.914 224.914C243.866 227.709 244.55 230.508 244.247 233.557C242.667 233.683 241.517 233.118 240.5 232.194V232.198Z" fill="#E6A87D"/>
<path d="M344.871 225.628C343.429 222.644 344.093 219.336 343.409 216.206C342.328 211.27 340.773 206.632 337.075 203.066C335.147 201.207 333.568 199.073 331.579 197.246C323.5 189.829 313.683 185.973 303.315 183.4C293.591 180.984 283.689 180.895 273.718 182C267.19 182.722 260.661 183.34 254.21 184.614C253.42 184.771 252.59 184.747 251.929 184.122C263.111 179.96 274.645 177.56 286.597 177.209C295.827 176.939 304.902 177.842 313.666 180.903C325.946 185.195 335.925 192.293 341.668 204.304C344.778 210.814 345.932 217.808 346.082 224.975C346.098 225.681 345.426 225.677 344.871 225.628Z" fill="#E9A97F"/>
<path d="M277.784 321.511C279.019 317.405 278.149 313.073 279.283 308.915C280.595 304.095 283.466 300.981 288.192 299.598C291.125 298.739 294.142 298.182 297.09 297.38C298.107 297.101 298.589 297.319 298.795 298.299C296.819 302.998 295.596 307.854 295.175 312.956C294.972 315.388 294.956 317.727 295.616 320.067C295.45 322.797 296.454 325.286 297.467 328.363C290.355 326.947 283.968 324.536 277.784 321.515V321.511Z" fill="#FEFEFE"/>
<path d="M328.428 291.189C329.348 293.205 329.469 295.266 329.101 297.46C328.416 301.546 328.254 305.716 327.153 309.729C325.646 315.207 322.333 317.453 316.732 316.937C314.213 316.703 313.172 315.872 312.557 313.371C312.237 312.081 311.905 310.73 311.961 309.419C312.132 305.281 312.322 301.131 312.812 297.021C313.229 293.508 314.651 292.358 318.065 291.507C319.741 291.088 321.588 291.314 323.099 290.253C324.917 290.334 326.796 290.063 328.428 291.189Z" fill="#FEFEFE"/>
<path d="M381.32 316.844C384.657 309.863 384.329 302.732 382.163 295.54C381.705 294.024 381.073 292.56 380.522 291.072C379.725 288.422 381.883 288.345 383.248 288.551C388.784 289.374 394.316 290.354 399.16 293.463C400.278 299.36 397.836 304.341 394.576 308.818C391.085 313.613 386.747 317.687 381.357 320.458C380.927 320.68 380.514 321.168 379.85 320.72C379.907 319.284 381.567 318.397 381.324 316.84L381.32 316.844Z" fill="#FDFEFE"/>
<path d="M399.152 293.463C394.624 292.274 390.084 291.124 385.577 289.87C384.382 289.539 383.212 289.426 381.997 289.47C380.948 289.507 380.733 290.285 380.518 291.076C377.748 286.679 374.658 282.545 370.839 278.98C369.049 277.31 367.073 276.028 364.61 275.612C364.598 275.12 364.396 274.434 365.181 274.443C373.678 274.527 382.155 275.06 389.619 279.609C394.75 282.735 399.079 286.736 399.156 293.467L399.152 293.463Z" fill="#CECFCF"/>
<path d="M381.515 399.933C382.341 398.55 383.742 397.195 385.524 396.533C390.465 394.702 394.649 391.681 398.986 388.781C405.316 384.55 407.264 378.444 408.09 371.47C408.637 366.877 403.34 364.666 398.864 365.513C395.904 366.074 393.008 365.876 390.084 365.957C389.614 365.969 389.128 365.57 388.651 365.356C389.205 365.283 389.764 365.211 390.319 365.138C391.239 364.445 392.401 365.106 393.353 364.59C396.811 364.09 400.27 363.577 403.728 363.085C408.665 362.388 410.48 363.36 411.593 368.252C413.177 375.221 412.557 381.638 406.887 387.103C399.691 394.041 391.477 398.606 381.515 399.933Z" fill="#F5EEE3"/>
<path d="M182.238 264.44L180.562 264.388C168.465 268.554 156.278 272.478 143.926 278.032C150.305 282.517 154.796 288.357 160.673 292.717C163.479 294.956 166.035 297.529 169.323 299.118C170.785 300.598 168.655 301.945 169.161 303.393C160.486 297.452 152.386 290.838 145.234 283.114C143.582 281.331 141.654 279.875 139.285 278.258C143.181 275.628 147.203 273.583 151.24 271.684C160.984 267.102 171.073 263.371 181.505 260.621C183.85 260.004 186.219 259.487 188.666 259.507C187.491 261.161 185.511 260.455 183.956 260.963C181.817 261.665 181.7 262.738 182.23 264.44H182.238Z" fill="#1B0B08"/>
<path d="M386.237 257.059C386.387 255.732 385.731 254.768 384.844 253.873C379.656 248.642 374.743 243.189 368.162 239.458C362.233 236.098 355.782 234.376 349.435 232.247C346.054 231.113 342.486 230.557 339.278 228.903C350.383 228.818 360.941 231.097 370.673 236.502C377.837 240.479 383.43 246.323 388.772 252.401C389.116 252.792 389.291 253.32 389.562 253.78C390.534 255.446 390.323 256.474 388.165 256.761C387.533 256.845 386.929 257.225 386.237 257.059Z" fill="#E2AA83"/>
<path d="M169.327 299.118C168.789 300.32 168.1 299.711 167.46 299.251C164.978 297.468 162.483 295.702 160.365 293.475C157.826 289.979 158.097 286.199 160.474 283.07C163.204 279.484 166.638 276.358 171.903 277.367C171.944 279.395 170.98 281.186 170.51 283.094C169.352 287.833 168.623 292.6 169.254 297.493C169.044 298.045 169.036 298.586 169.327 299.114V299.118Z" fill="#FAFAFA"/>
<path d="M382.219 356.426C380.753 355.487 381.405 354.015 381.341 352.76C381.166 349.501 380.838 348.872 377.562 348.053C372.933 346.892 368.239 347.392 363.562 347.856C356.507 348.562 349.448 349.703 342.368 348.235C340.165 347.779 337.921 347.275 336.034 345.896C340.303 345.996 344.462 347.122 348.82 346.763C355.644 346.202 362.286 344.573 369.077 343.847C372.168 343.516 375.173 343.326 378.247 343.988C384.698 345.375 386.666 350.046 382.985 355.503C382.762 355.834 382.475 356.116 382.215 356.422L382.219 356.426Z" fill="#A9785A"/>
<path d="M268.801 286.22C265.241 285.828 262.82 282.997 259.547 281.928C257.988 281.42 257.004 281.255 256.623 283.122C255.449 280.44 255.485 277.294 253.497 274.918C252.675 272.337 250.832 270.325 249.475 267.961C259.746 268.99 267.987 276.822 268.805 286.22H268.801Z" fill="#CFCFD0"/>
<path d="M334.523 459.553C334.252 459.359 334.143 458.948 334.37 458.879C338.488 457.633 342.073 455.197 345.973 453.596C351.464 451.341 354.469 447.062 356.891 442.339C359.41 437.418 359.463 431.751 360.285 426.347C360.451 425.242 360.143 424.221 359.479 423.314C359.775 423.237 360.066 423.161 360.362 423.084C360.957 422.681 361.715 423.023 362.318 422.669C363.472 422.479 363.711 423.201 363.642 424.088C363.152 430.501 362.788 436.938 360.617 443.093C359.066 447.497 355.834 450.53 352.141 453.067C346.847 456.705 340.849 458.613 334.523 459.557V459.553Z" fill="#E4AA87"/>
<path d="M358.029 339.495C357.511 339.398 356.988 339.305 355.624 339.055C364.614 337.652 372.366 334.788 380.024 331.803C387.752 328.791 393.041 323.459 393.43 314.573C394.458 313.359 395.479 312.129 396.54 310.935C396.674 310.786 397.022 310.831 397.293 310.778C397.188 318.538 393.867 324.846 388.517 330.251C379.089 335.736 368.842 338.559 358.025 339.495H358.029Z" fill="#DEAB89"/>
<path d="M373.54 417.736C373.285 417.655 373.006 417.615 372.787 417.478C372.406 417.236 372.293 416.966 372.868 416.8C376.019 415.905 379.482 415.897 382.154 413.614C389.452 412.194 393.608 406.822 397.516 401.268C398.707 399.574 400.104 397.888 400.574 395.755C402.607 394.125 404.64 392.496 407.045 390.572C401.667 405.451 388.472 416.663 373.548 417.736H373.54Z" fill="#F2EADE"/>
<path d="M336.82 341.858C340.052 341.858 343.288 341.911 346.519 341.858C359.52 341.641 372.261 339.882 384.5 335.292C385.585 338.063 384.325 340.019 382.26 341.693C376.703 340.406 371.159 340.374 365.514 341.35C360.366 342.238 355.243 343.258 350.006 343.742C345.483 344.161 341.206 343.601 336.893 342.588C336.589 342.423 336.484 342.254 336.573 342.072C336.666 341.887 336.759 341.794 336.856 341.794L336.816 341.862L336.82 341.858Z" fill="#A47960"/>
<path d="M353.056 374.04C354.263 374.08 354.971 374.762 355.506 375.786C356.867 378.396 357.843 381.053 357.928 384.082C358.09 389.826 357.677 395.436 355.381 400.788C354.712 400.788 354.04 400.824 353.376 400.776C352.995 400.752 352.627 400.595 351.873 400.397C354.656 391.685 355.389 382.905 353.056 374.04Z" fill="#C7AF94"/>
<path d="M394.337 278.762C395.252 277.528 394.806 276.338 394.454 274.995C393.069 269.72 391.384 264.577 388.61 259.838C392.988 259.415 394.535 260.189 396.244 263.871C398.403 268.53 398.476 273.41 397.39 278.31C396.88 280.601 396.451 280.597 394.341 278.762H394.337Z" fill="#DFA77F"/>
<path d="M382.264 341.689C382.965 339.539 384.188 337.571 384.504 335.288C385.743 334.034 387.525 333.731 388.967 332.691C388.128 336.438 385.204 341.233 382.969 342.592C382.734 342.29 382.499 341.991 382.264 341.689Z" fill="#D0A591"/>
<path d="M141.8 238.676C145.534 234.55 150.353 232.271 155.57 230.666C155.57 231.299 155.74 231.847 156.298 232.218C151.204 233.799 146.696 236.699 141.759 238.631L141.8 238.676Z" fill="#35110A"/>
<path d="M336.86 341.79C336.816 342.056 336.828 342.322 336.897 342.584C335.734 342.584 334.483 342.988 333.592 341.822C334.681 341.81 335.771 341.802 336.864 341.79H336.86Z" fill="#30110C"/>
<path d="M393.353 364.586C392.482 365.55 391.38 365.231 390.319 365.134C391.231 364.4 392.279 364.436 393.353 364.586Z" fill="#ECDBBF"/>
<path d="M182.396 341.685C181.461 341.879 180.541 341.991 179.857 341.1C180.809 340.846 181.667 340.983 182.396 341.685Z" fill="#A75E34"/>
<path d="M362.314 422.668C361.804 423.471 361.062 423.217 360.354 423.084C360.905 422.463 361.585 422.459 362.314 422.668Z" fill="#C47A47"/>
<path d="M194.449 343.29C193.566 343.48 192.699 343.597 192.043 342.766C192.934 342.54 193.764 342.588 194.449 343.29Z" fill="#A75E34"/>
<path d="M168.428 229.048C167.8 229.819 166.974 229.803 166.107 229.629C166.727 228.818 167.573 228.923 168.428 229.048Z" fill="#35110A"/>
<path d="M160.276 228.919C160.968 228.149 161.879 228.117 162.819 228.177C162.187 229.157 161.235 229.048 160.276 228.919Z" fill="#35110A"/>
<path d="M162.819 228.177C163.475 227.395 164.334 227.334 165.257 227.483C164.621 228.334 163.722 228.262 162.819 228.177Z" fill="#35110A"/>
<path d="M389.975 4.33572C389.372 5.10204 388.61 4.93264 387.841 4.69065C388.485 4.15826 389.206 4.10583 389.975 4.33572Z" fill="#C47A47"/>
<path d="M86.883 635.193C87.6809 635.846 87.5756 636.745 87.5391 637.621C86.6724 636.983 86.7129 636.104 86.883 635.193Z" fill="#0D3916"/>
<path d="M238.176 349.554C245.336 345.472 252.557 342.197 259.073 336.313C256.562 342.677 246.231 349.001 238.176 349.554Z" fill="#3F150C"/>
<path d="M141.755 238.631C141.52 239.595 140.937 240.071 139.576 239.966C140.297 239.156 140.864 238.647 141.796 238.68L141.755 238.635V238.631Z" fill="#35110A"/>
<path d="M171.899 277.371C169.433 278.258 166.877 278.746 164.637 280.384C160.101 283.699 158.976 286.272 160.243 291.907C160.357 292.415 160.328 292.955 160.365 293.48C156.825 291.249 153.958 288.24 150.912 285.433C148.077 282.82 145.595 279.795 141.439 277.923C154.379 272.531 166.723 267.517 179.63 264C180.035 263.892 180.4 263.916 180.57 264.388C176.415 267.876 174.41 272.789 171.907 277.371H171.899Z" fill="#CECFCE"/>
<path d="M201.37 273.608C202.678 273.741 204.549 273.874 206.408 274.132C209.268 274.531 210.073 275.306 209.636 278.048C208.838 283.05 207.923 288.067 205.995 292.778C204.003 297.634 202.01 298.541 196.887 297.481C190.65 296.19 189.97 295.093 191.671 289.035C192.679 285.437 193.659 281.831 194.74 278.258C196.045 273.951 196.458 273.676 201.374 273.608H201.37Z" fill="#FEFEFE"/>
<path d="M226.905 281.577C226.897 283.892 224.572 286.026 222.053 286.026C219.842 286.026 217.837 284.122 217.841 282.017C217.841 279.795 220.32 277.161 222.446 277.121C224.463 277.08 226.909 279.528 226.905 281.581V281.577Z" fill="#F2F2F3"/>
<path d="M225.094 296.888C227.103 296.674 228.513 297.291 229.736 298.311C230.716 299.13 231.194 300.255 230.574 301.481C230.084 302.449 229.262 303.276 228.063 303.03C226.881 302.792 225.836 302.224 225.682 300.772C225.556 299.606 225.337 298.452 225.094 296.884V296.888Z" fill="#E9ECEC"/>
<path d="M353.623 294.879C353.562 297.182 350.808 299.82 348.585 299.699C346.702 299.598 344.912 297.605 344.912 295.617C344.912 293.044 347.495 290.096 349.674 290.18C351.764 290.261 353.684 292.544 353.623 294.875V294.879Z" fill="#F2F4F4"/>
<path d="M359.196 306.467C358.989 307.547 358.531 308.169 357.559 308.027C356.701 307.902 356.033 307.386 356.251 306.422C356.421 305.68 356.77 304.809 357.766 304.946C358.657 305.067 358.957 305.878 359.196 306.467Z" fill="#D0D8DA"/>
</g>
<defs>
<clipPath id="clip0_45_666">
<rect width="478" height="847" fill="white"/>
</clipPath>
</defs>
</svg>
